<svg width="206px" height="39px" viewBox="0 0 206 39" version="1.1" xmlns="http://www.w3.org/2000/svg" xmlns:xlink="http://www.w3.org/1999/xlink">
    <g id="Page-1" stroke="none" stroke-width="1" fill="none" fill-rule="evenodd">
        <g id="Artboard-Copy-9" transform="translate(-184.000000, -78.000000)" fill-rule="nonzero">
            <g id="Group-3-Copy" transform="translate(183.000000, 63.000000)">
                <path d="M16.8457031,45.9443359 C18.1315168,45.9443359 19.6695874,45.6269563 21.4599609,44.9921875 L21.4599609,51.9501953 C20.1741472,52.5035835 18.9493873,52.8982736 17.7856445,53.1342773 C16.6219017,53.3702811 15.2587969,53.4882812 13.6962891,53.4882812 C10.4898928,53.4882812 8.17871802,52.7029701 6.76269531,51.1323242 C5.34667261,49.5616783 4.63867188,47.1487793 4.63867188,43.8935547 L4.63867188,32.4921875 L1.29394531,32.4921875 L1.29394531,28.6103516 L5.54199219,25.6074219 L8.0078125,19.796875 L14.2578125,19.796875 L14.2578125,25.3388672 L21.0449219,25.3388672 L21.0449219,32.4921875 L14.2578125,32.4921875 L14.2578125,43.2587891 C14.2578125,45.0491626 15.1204341,45.9443359 16.8457031,45.9443359 Z M42.9931641,24.8505859 C43.8232463,24.8505859 44.6126265,24.9156895 45.3613281,25.0458984 L45.8984375,25.1435547 L45.0439453,34.1523438 C44.2626914,33.9570303 43.1803455,33.859375 41.796875,33.859375 C39.7135313,33.859375 38.1998745,34.3354445 37.2558594,35.2875977 C36.3118442,36.2397509 35.8398438,37.6109937 35.8398438,39.4013672 L35.8398438,53 L26.2939453,53 L26.2939453,25.3388672 L33.3984375,25.3388672 L34.8876953,29.7578125 L35.3515625,29.7578125 C36.1490925,28.2929614 37.2599213,27.1088912 38.684082,26.2055664 C40.1082428,25.3022416 41.5445891,24.8505859 42.9931641,24.8505859 Z M67.7978516,53 L65.9667969,49.3378906 L65.7714844,49.3378906 C64.4856707,50.9329507 63.1754624,52.0234346 61.8408203,52.609375 C60.5061782,53.1953154 58.7809351,53.4882812 56.6650391,53.4882812 C54.0608594,53.4882812 52.0100986,52.7070391 50.5126953,51.1445312 C49.015292,49.5820234 48.2666016,47.3847798 48.2666016,44.5527344 C48.2666016,41.6067561 49.2919819,39.4135814 51.3427734,37.9731445 C53.3935649,36.5327076 56.3639128,35.7229827 60.2539062,35.5439453 L64.8681641,35.3974609 L64.8681641,35.0068359 C64.8681641,32.7281787 63.7451284,31.5888672 61.4990234,31.5888672 C59.4807842,31.5888672 56.9173333,32.2724541 53.8085938,33.6396484 L51.0498047,27.3408203 C54.2724771,25.6806558 58.3414468,24.8505859 63.2568359,24.8505859 C66.8050308,24.8505859 69.5515853,25.7294834 71.496582,27.4873047 C73.4415787,29.245126 74.4140625,31.7027837 74.4140625,34.8603516 L74.4140625,53 L67.7978516,53 Z M60.7177734,46.75 C61.8733782,46.75 62.8621378,46.3837927 63.684082,45.6513672 C64.5060262,44.9189417 64.9169922,43.9668027 64.9169922,42.7949219 L64.9169922,40.6464844 L62.7197266,40.7441406 C59.5784348,40.8580735 58.0078125,42.0136609 58.0078125,44.2109375 C58.0078125,45.9036543 58.9111238,46.75 60.7177734,46.75 Z M93.5058594,53.4882812 C88.9810972,53.4882812 85.5509557,52.2675903 83.215332,49.8261719 C80.8797084,47.3847534 79.7119141,43.8773015 79.7119141,39.3037109 C79.7119141,34.7138442 80.9732947,31.1575647 83.4960938,28.6347656 C86.0188928,26.1119666 89.6077241,24.8505859 94.2626953,24.8505859 C97.4690916,24.8505859 100.488267,25.5504487 103.320312,26.9501953 L100.512695,34.0058594 C99.3570906,33.5012996 98.2910205,33.0984716 97.3144531,32.7973633 C96.3378857,32.496255 95.3206433,32.3457031 94.2626953,32.3457031 C92.7164636,32.3457031 91.5201865,32.9479106 90.6738281,34.1523438 C89.8274697,35.3567769 89.4042969,37.0576062 89.4042969,39.2548828 C89.4042969,43.6819883 91.0400227,45.8955078 94.3115234,45.8955078 C97.1110166,45.8955078 99.7965366,45.0817139 102.368164,43.4541016 L102.368164,51.046875 C99.9104695,52.6744873 96.9563975,53.4882812 93.5058594,53.4882812 Z M117.114258,37.4482422 C118.269863,35.6090403 119.254553,34.1767629 120.068359,33.1513672 L126.269531,25.3388672 L136.914062,25.3388672 L127.319336,37.1064453 L137.524414,53 L126.611328,53 L120.556641,43.0878906 L117.456055,45.4560547 L117.456055,53 L107.861328,53 L107.861328,15.0117188 L117.456055,15.0117188 L117.456055,29.953125 C117.456055,32.5084763 117.27702,35.0068237 116.918945,37.4482422 L117.114258,37.4482422 Z M154.174805,53.4882812 C149.568662,53.4882812 145.992037,52.2635214 143.444824,49.8139648 C140.897611,47.3644083 139.624023,43.8773013 139.624023,39.3525391 C139.624023,34.6812917 140.804025,31.0965294 143.164062,28.5981445 C145.5241,26.0997596 148.893207,24.8505859 153.271484,24.8505859 C157.438172,24.8505859 160.656727,25.9370009 162.927246,28.1098633 C165.197765,30.2827257 166.333008,33.4117634 166.333008,37.4970703 L166.333008,41.7451172 L149.267578,41.7451172 C149.332683,43.2913489 149.898269,44.5039019 150.964355,45.3828125 C152.030442,46.2617231 153.483064,46.7011719 155.322266,46.7011719 C156.998706,46.7011719 158.540846,46.5424821 159.94873,46.2250977 C161.356615,45.9077133 162.882479,45.3665403 164.526367,44.6015625 L164.526367,51.4619141 C163.028964,52.2268918 161.482755,52.7558579 159.887695,53.0488281 C158.292635,53.3417983 156.388357,53.4882812 154.174805,53.4882812 Z M153.613281,31.3447266 C152.490229,31.3447266 151.550297,31.6987269 150.793457,32.4067383 C150.036617,33.1147496 149.5931,34.2255784 149.462891,35.7392578 L157.666016,35.7392578 C157.633463,34.4046157 157.255049,33.3385457 156.530762,32.5410156 C155.806474,31.7434856 154.83399,31.3447266 153.613281,31.3447266 Z M188.427734,24.8505859 C189.257817,24.8505859 190.047197,24.9156895 190.795898,25.0458984 L191.333008,25.1435547 L190.478516,34.1523438 C189.697262,33.9570303 188.614916,33.859375 187.231445,33.859375 C185.148102,33.859375 183.634445,34.3354445 182.69043,35.2875977 C181.746415,36.2397509 181.274414,37.6109937 181.274414,39.4013672 L181.274414,53 L171.728516,53 L171.728516,25.3388672 L178.833008,25.3388672 L180.322266,29.7578125 L180.786133,29.7578125 C181.583663,28.2929614 182.694492,27.1088912 184.118652,26.2055664 C185.542813,25.3022416 186.979159,24.8505859 188.427734,24.8505859 Z" id="tracker" fill="#000000"></path>
                <circle id="Oval" fill="#FC709C" cx="199.5" cy="45.5" r="7.5"></circle>
            </g>
        </g>
    </g>
</svg>